# 3ds Max Wavefront OBJ Exporter v0.97b - (c)2007 guruware
# File Created: 11.04.2017 07:25:55

mtllib Gas_ring_01.mtl

#
# object Circle001
#

v  98.6745 0.0000 -32.5560
v  103.4908 0.0000 -9.0543
v  132.9268 0.0000 -11.6296
v  126.7536 0.0000 -41.7524
v  88.9885 0.0000 -53.6266
v  114.2870 0.0000 -68.8721
v  75.0856 0.0000 -71.7705
v  96.4242 0.0000 -92.1838
v  57.6416 0.0000 -86.4077
v  74.0394 0.0000 -110.9669
v  37.3592 0.0000 -96.9488
v  47.9800 0.0000 -124.5103
v  14.9267 0.0000 -102.8287
v  19.1075 0.0000 -132.0782
v  -9.0543 0.0000 -103.4908
v  -11.6296 0.0000 -132.9268
v  -32.5560 0.0000 -98.6745
v  -41.7524 0.0000 -126.7536
v  -53.6266 0.0000 -88.9885
v  -68.8721 0.0000 -114.2870
v  -71.7705 0.0000 -75.0856
v  -92.1838 0.0000 -96.4242
v  -86.4077 0.0000 -57.6416
v  -110.9669 0.0000 -74.0394
v  -96.9488 0.0000 -37.3591
v  -124.5103 0.0000 -47.9800
v  -102.8287 0.0000 -14.9267
v  -132.0782 0.0000 -19.1075
v  -103.4908 0.0000 9.0543
v  -132.9268 0.0000 11.6296
v  -98.6745 0.0000 32.5560
v  -126.7536 0.0000 41.7524
v  -88.9885 0.0000 53.6266
v  -114.2870 0.0000 68.8721
v  -75.0856 0.0000 71.7705
v  -96.4242 0.0000 92.1838
v  -57.6416 0.0000 86.4077
v  -74.0394 0.0000 110.9669
v  -37.3592 0.0000 96.9488
v  -47.9800 0.0000 124.5103
v  -14.9267 0.0000 102.8287
v  -19.1075 0.0000 132.0782
v  9.0543 0.0000 103.4908
v  11.6296 0.0000 132.9268
v  32.5560 0.0000 98.6745
v  41.7524 0.0000 126.7536
v  53.6266 0.0000 88.9885
v  68.8721 0.0000 114.2870
v  71.7705 0.0000 75.0856
v  92.1838 0.0000 96.4242
v  86.4077 0.0000 57.6416
v  110.9669 0.0000 74.0394
v  96.9488 0.0000 37.3592
v  124.5103 0.0000 47.9800
v  102.8287 0.0000 14.9267
v  132.0782 0.0000 19.1075
# 56 vertices

vn 0.0000 1.0000 -0.0000
# 1 vertex normals

vt 0.8790 0.5893 0.0000
vt 0.8893 0.5000 0.0000
vt 1.0000 0.5000 0.0000
vt 0.9868 0.6145 0.0000
vt 0.8497 0.6711 0.0000
vt 0.9491 0.7198 0.0000
vt 0.8037 0.7434 0.0000
vt 0.8900 0.8126 0.0000
vt 0.7434 0.8037 0.0000
vt 0.8126 0.8900 0.0000
vt 0.6711 0.8497 0.0000
vt 0.7198 0.9491 0.0000
vt 0.5893 0.8790 0.0000
vt 0.6145 0.9868 0.0000
vt 0.5000 0.8893 0.0000
vt 0.5000 1.0000 0.0000
vt 0.4107 0.8790 0.0000
vt 0.3855 0.9868 0.0000
vt 0.3289 0.8497 0.0000
vt 0.2802 0.9491 0.0000
vt 0.2566 0.8037 0.0000
vt 0.1874 0.8900 0.0000
vt 0.1963 0.7434 0.0000
vt 0.1100 0.8126 0.0000
vt 0.1503 0.6711 0.0000
vt 0.0509 0.7198 0.0000
vt 0.1210 0.5893 0.0000
vt 0.0132 0.6145 0.0000
vt 0.1107 0.5000 0.0000
vt 0.0000 0.5000 0.0000
vt 0.1210 0.4107 0.0000
vt 0.0132 0.3855 0.0000
vt 0.1503 0.3289 0.0000
vt 0.0509 0.2802 0.0000
vt 0.1963 0.2566 0.0000
vt 0.1100 0.1874 0.0000
vt 0.2566 0.1963 0.0000
vt 0.1874 0.1100 0.0000
vt 0.3289 0.1503 0.0000
vt 0.2802 0.0509 0.0000
vt 0.4107 0.1210 0.0000
vt 0.3855 0.0132 0.0000
vt 0.5000 0.1107 0.0000
vt 0.5000 0.0000 0.0000
vt 0.5893 0.1210 0.0000
vt 0.6145 0.0132 0.0000
vt 0.6711 0.1503 0.0000
vt 0.7198 0.0509 0.0000
vt 0.7434 0.1963 0.0000
vt 0.8126 0.1100 0.0000
vt 0.8037 0.2566 0.0000
vt 0.8900 0.1874 0.0000
vt 0.8497 0.3289 0.0000
vt 0.9491 0.2802 0.0000
vt 0.8790 0.4107 0.0000
vt 0.9868 0.3855 0.0000
# 56 texture coords

g Circle001
usemtl Material__27
s 1
f 1/1/1 2/2/1 3/3/1 4/4/1 
f 5/5/1 1/1/1 4/4/1 6/6/1 
f 7/7/1 5/5/1 6/6/1 8/8/1 
f 9/9/1 7/7/1 8/8/1 10/10/1 
f 11/11/1 9/9/1 10/10/1 12/12/1 
f 13/13/1 11/11/1 12/12/1 14/14/1 
f 15/15/1 13/13/1 14/14/1 16/16/1 
f 17/17/1 15/15/1 16/16/1 18/18/1 
f 19/19/1 17/17/1 18/18/1 20/20/1 
f 21/21/1 19/19/1 20/20/1 22/22/1 
f 23/23/1 21/21/1 22/22/1 24/24/1 
f 25/25/1 23/23/1 24/24/1 26/26/1 
f 27/27/1 25/25/1 26/26/1 28/28/1 
f 29/29/1 27/27/1 28/28/1 30/30/1 
f 31/31/1 29/29/1 30/30/1 32/32/1 
f 33/33/1 31/31/1 32/32/1 34/34/1 
f 35/35/1 33/33/1 34/34/1 36/36/1 
f 37/37/1 35/35/1 36/36/1 38/38/1 
f 39/39/1 37/37/1 38/38/1 40/40/1 
f 41/41/1 39/39/1 40/40/1 42/42/1 
f 43/43/1 41/41/1 42/42/1 44/44/1 
f 45/45/1 43/43/1 44/44/1 46/46/1 
f 47/47/1 45/45/1 46/46/1 48/48/1 
f 49/49/1 47/47/1 48/48/1 50/50/1 
f 51/51/1 49/49/1 50/50/1 52/52/1 
f 53/53/1 51/51/1 52/52/1 54/54/1 
f 55/55/1 53/53/1 54/54/1 56/56/1 
f 2/2/1 55/55/1 56/56/1 3/3/1 
# 28 polygons

